<svg width="741" height="165" viewBox="0 0 741 165" fill="none" xmlns="http://www.w3.org/2000/svg">
<path d="M189.6 47.15C197.9 47.15 204.45 48.1 209.25 50C214.15 51.9 217.65 55.2 219.75 59.9C221.85 64.5 222.9 71.05 222.9 79.55C222.9 88.05 221.85 94.65 219.75 99.35C217.75 104.05 214.4 107.35 209.7 109.25C205.1 111.05 198.9 111.95 191.1 111.95C186.9 111.95 182.85 111.85 178.95 111.65C175.15 111.45 171.65 111.2 168.45 110.9C165.25 110.5 162.5 110.1 160.2 109.7C158 109.3 156.45 108.95 155.55 108.65L156 100.55C161.3 100.55 166.8 100.55 172.5 100.55C178.2 100.55 183.85 100.55 189.45 100.55C194.45 100.45 198.4 99.85 201.3 98.75C204.3 97.55 206.4 95.45 207.6 92.45C208.9 89.35 209.55 85.05 209.55 79.55C209.55 73.95 208.9 69.65 207.6 66.65C206.4 63.65 204.3 61.55 201.3 60.35C198.4 59.15 194.45 58.55 189.45 58.55C181.25 58.55 174.15 58.6 168.15 58.7C162.25 58.8 158.25 58.95 156.15 59.15L154.05 48.5C157.85 48.1 161.4 47.8 164.7 47.6C168 47.4 171.6 47.3 175.5 47.3C179.4 47.2 184.1 47.15 189.6 47.15ZM167.25 48.5V152H154.05V48.5H167.25ZM274.453 48.5C275.653 48.5 276.703 48.85 277.603 49.55C278.503 50.15 279.103 51 279.403 52.1L312.703 152H299.053L272.203 67.1C271.803 65.7 271.353 64.3 270.853 62.9C270.453 61.4 270.053 60 269.653 58.7H265.453C265.053 60 264.653 61.4 264.253 62.9C263.853 64.3 263.403 65.7 262.903 67.1L236.053 152H222.403L255.703 52.1C256.003 51 256.603 50.15 257.503 49.55C258.403 48.85 259.453 48.5 260.653 48.5H274.453ZM293.653 108.2V119.6H241.153V108.2H293.653ZM386.407 48.5L351.457 116.9H339.607L304.507 48.5H318.607L340.357 92.15C341.257 94.05 342.057 96 342.757 98C343.557 100 344.307 101.95 345.007 103.85H346.057C346.757 101.95 347.507 100 348.307 98C349.107 96 349.907 94.1 350.707 92.3L372.457 48.5H386.407ZM352.057 107.6V152H338.857V107.6H352.057Z" fill="white"/>
<path d="M437.1 48.35C442.1 48.35 447.1 48.35 452.1 48.35C457.2 48.35 462.2 48.45 467.1 48.65C472.1 48.75 476.9 48.95 481.5 49.25L480.9 59.6H439.35C436.25 59.6 433.95 60.4 432.45 62C431.05 63.5 430.35 66 430.35 69.5V131C430.35 134.5 431.05 137.05 432.45 138.65C433.95 140.25 436.25 141.05 439.35 141.05H480.9L481.5 151.25C476.9 151.55 472.1 151.75 467.1 151.85C462.2 151.95 457.2 152 452.1 152C447.1 152.1 442.1 152.15 437.1 152.15C431 152.15 426.15 150.55 422.55 147.35C419.05 144.05 417.25 139.65 417.15 134.15V66.35C417.25 60.75 419.05 56.35 422.55 53.15C426.15 49.95 431 48.35 437.1 48.35ZM419.85 92H475.05V102.65H419.85V92ZM539.186 48.5C540.386 48.5 541.436 48.85 542.336 49.55C543.236 50.15 543.836 51 544.136 52.1L577.436 152H563.786L536.936 67.1C536.536 65.7 536.086 64.3 535.586 62.9C535.186 61.4 534.786 60 534.386 58.7H530.186C529.786 60 529.386 61.4 528.986 62.9C528.586 64.3 528.136 65.7 527.636 67.1L500.786 152H487.136L520.436 52.1C520.736 51 521.336 50.15 522.236 49.55C523.136 48.85 524.186 48.5 525.386 48.5H539.186ZM558.386 108.2V119.6H505.886V108.2H558.386ZM638.046 59.6L652.446 59.75L597.396 140.9L582.846 140.75L638.046 59.6ZM653.496 140.75V152H582.846V140.75H653.496ZM652.446 48.5V59.75H583.746V48.5H652.446ZM740.857 48.5L705.907 116.9H694.057L658.957 48.5H673.057L694.807 92.15C695.707 94.05 696.507 96 697.207 98C698.007 100 698.757 101.95 699.457 103.85H700.507C701.207 101.95 701.957 100 702.757 98C703.557 96 704.357 94.1 705.157 92.3L726.907 48.5H740.857ZM706.507 107.6V152H693.307V107.6H706.507Z" fill="white"/>
<path d="M2.95001 4.91669L73.2421 4.91669L85.5043 25.2591" stroke="white" stroke-width="9.83386" stroke-miterlimit="2.61313"/>
<path d="M9.71794 16.5081H64.9689L74.6075 32.8831" stroke="white" stroke-width="9.83386" stroke-miterlimit="2.61313"/>
<path d="M89.7825 36.0785L98.55 56.0444L79.2617 79.6404" stroke="white" stroke-width="9.83386" stroke-miterlimit="2.61313"/>
<path d="M75.6824 37.1147L82.9471 52.6316L66.9651 70.9696" stroke="white" stroke-width="9.83386" stroke-miterlimit="2.61313"/>
<path d="M63.5086 77.0075L50.5463 94.7639H4.86765" stroke="white" stroke-width="9.83386" stroke-miterlimit="2.61313"/>
<path d="M73.8809 85.8857L58.385 108.85H3.77911" stroke="white" stroke-width="9.83386" stroke-miterlimit="2.61313"/>
<path d="M7.13429 4.91675L5.65303 163.984" stroke="white" stroke-width="9.83386" stroke-miterlimit="2.61313"/>
<path d="M20.0533 7.82455L18.5714 164.25" stroke="white" stroke-width="9.83386" stroke-miterlimit="2.61313"/>
</svg>
