<svg width="745" height="165" viewBox="0 0 745 165" fill="none" xmlns="http://www.w3.org/2000/svg">
    <path d="M189.9 47.15C198.4 47.15 205.15 48.1 210.15 50C215.15 51.9 218.7 55.2 220.8 59.9C223 64.6 224.1 71.25 224.1 79.85C224.1 88.35 223.05 95 220.95 99.8C218.85 104.5 215.4 107.8 210.6 109.7C205.9 111.5 199.6 112.4 191.7 112.4C187.4 112.4 183.25 112.3 179.25 112.1C175.35 111.9 171.75 111.6 168.45 111.2C165.15 110.8 162.3 110.4 159.9 110C157.6 109.5 156 109.05 155.1 108.65L155.55 99.95C160.95 99.95 166.55 99.95 172.35 99.95C178.15 99.95 183.95 99.95 189.75 99.95C194.55 99.85 198.35 99.25 201.15 98.15C203.95 97.05 205.95 95.05 207.15 92.15C208.35 89.25 208.95 85.15 208.95 79.85C208.95 74.45 208.35 70.3 207.15 67.4C205.95 64.5 203.95 62.5 201.15 61.4C198.35 60.2 194.55 59.6 189.75 59.6C181.35 59.6 174.1 59.65 168 59.75C161.9 59.85 157.8 60 155.7 60.2L153.6 48.5C157.4 48.1 161 47.8 164.4 47.6C167.8 47.4 171.5 47.3 175.5 47.3C179.5 47.2 184.3 47.15 189.9 47.15ZM168.6 48.5V152H153.6V48.5H168.6ZM276.386 48.5C277.686 48.5 278.836 48.9 279.836 49.7C280.836 50.4 281.536 51.35 281.936 52.55L314.636 152H299.036L273.236 68.75C272.836 67.25 272.436 65.75 272.036 64.25C271.636 62.75 271.236 61.35 270.836 60.05H266.636C266.236 61.35 265.836 62.75 265.436 64.25C265.036 65.75 264.586 67.25 264.086 68.75L238.286 152H222.836L255.536 52.55C255.936 51.35 256.636 50.4 257.636 49.7C258.636 48.9 259.786 48.5 261.086 48.5H276.386ZM294.986 108.05V120.5H242.186V108.05H294.986ZM389.372 48.5L354.422 117.35H340.772L305.672 48.5H321.572L342.572 91.1C343.472 93 344.272 95 344.972 97.1C345.672 99.1 346.372 101.1 347.072 103.1H348.122C348.822 101.1 349.522 99.1 350.222 97.1C351.022 95 351.822 93.05 352.622 91.25L373.622 48.5H389.372ZM355.022 107.15V152H340.022V107.15H355.022Z" fill="black"/>
    <path d="M437.1 48.35C442.1 48.35 447.2 48.35 452.4 48.35C457.6 48.35 462.7 48.45 467.7 48.65C472.8 48.75 477.65 48.95 482.25 49.25L481.65 60.8H440.4C437.4 60.8 435.2 61.55 433.8 63.05C432.4 64.55 431.7 66.95 431.7 70.25V130.25C431.7 133.55 432.4 136 433.8 137.6C435.2 139.1 437.4 139.85 440.4 139.85H481.65L482.25 151.25C477.65 151.55 472.8 151.75 467.7 151.85C462.7 151.95 457.6 152 452.4 152C447.2 152.1 442.1 152.15 437.1 152.15C430.9 152.15 425.95 150.5 422.25 147.2C418.65 143.8 416.8 139.3 416.7 133.7V66.8C416.8 61.1 418.65 56.6 422.25 53.3C425.95 50 430.9 48.35 437.1 48.35ZM419.4 91.7H475.8V103.25H419.4V91.7ZM540.971 48.5C542.271 48.5 543.421 48.9 544.421 49.7C545.421 50.4 546.121 51.35 546.521 52.55L579.221 152H563.621L537.821 68.75C537.421 67.25 537.021 65.75 536.621 64.25C536.221 62.75 535.821 61.35 535.421 60.05H531.221C530.821 61.35 530.421 62.75 530.021 64.25C529.621 65.75 529.171 67.25 528.671 68.75L502.871 152H487.421L520.121 52.55C520.521 51.35 521.221 50.4 522.221 49.7C523.221 48.9 524.371 48.5 525.671 48.5H540.971ZM559.571 108.05V120.5H506.771V108.05H559.571ZM638.311 60.65L654.661 60.8L600.661 139.85L584.011 139.7L638.311 60.65ZM655.711 139.7V152H584.011V139.7H655.711ZM654.661 48.5V60.8H585.061V48.5H654.661ZM744.408 48.5L709.458 117.35H695.808L660.708 48.5H676.608L697.608 91.1C698.508 93 699.308 95 700.008 97.1C700.708 99.1 701.408 101.1 702.108 103.1H703.158C703.858 101.1 704.558 99.1 705.258 97.1C706.058 95 706.858 93.05 707.658 91.25L728.658 48.5H744.408ZM710.058 107.15V152H695.058V107.15H710.058Z" fill="black"/>
    <path d="M2.95001 4.91669L73.2421 4.91669L85.5043 25.2591" stroke="#000100" stroke-width="9.83386" stroke-miterlimit="2.61313"/>
    <path d="M9.71794 16.5081H64.9689L74.6075 32.8831" stroke="#000100" stroke-width="9.83386" stroke-miterlimit="2.61313"/>
    <path d="M89.7825 36.0785L98.55 56.0444L79.2617 79.6404" stroke="#000100" stroke-width="9.83386" stroke-miterlimit="2.61313"/>
    <path d="M75.6824 37.1147L82.9471 52.6316L66.9651 70.9696" stroke="#000100" stroke-width="9.83386" stroke-miterlimit="2.61313"/>
    <path d="M63.5086 77.0075L50.5463 94.7639H4.86765" stroke="#000100" stroke-width="9.83386" stroke-miterlimit="2.61313"/>
    <path d="M73.8809 85.8857L58.385 108.85H3.77911" stroke="#000100" stroke-width="9.83386" stroke-miterlimit="2.61313"/>
    <path d="M7.13429 4.91675L5.65303 163.984" stroke="#000100" stroke-width="9.83386" stroke-miterlimit="2.61313"/>
    <path d="M20.0533 7.82455L18.5714 164.25" stroke="#000100" stroke-width="9.83386" stroke-miterlimit="2.61313"/>
</svg>
